<svg width="22" height="24" viewBox="0 0 22 24" fill="none" xmlns="http://www.w3.org/2000/svg">
<path d="M8.74841 10.068C8.06441 10.068 7.52441 10.668 7.52441 11.4C7.52441 12.132 8.07641 12.732 8.74841 12.732C9.43241 12.732 9.97241 12.132 9.97241 11.4C9.98441 10.668 9.43241 10.068 8.74841 10.068ZM13.1284 10.068C12.4444 10.068 11.9044 10.668 11.9044 11.4C11.9044 12.132 12.4564 12.732 13.1284 12.732C13.8124 12.732 14.3524 12.132 14.3524 11.4C14.3524 10.668 13.8124 10.068 13.1284 10.068Z" fill="white"/>
<path d="M18.9604 0H2.88041C1.52441 0 0.42041 1.104 0.42041 2.472V18.696C0.42041 20.064 1.52441 21.168 2.88041 21.168H16.4884L15.8524 18.948L17.3884 20.376L18.8404 21.72L21.4204 24V2.472C21.4204 1.104 20.3164 0 18.9604 0ZM14.3284 15.672C14.3284 15.672 13.8964 15.156 13.5364 14.7C15.1084 14.256 15.7084 13.272 15.7084 13.272C15.2164 13.596 14.7484 13.824 14.3284 13.98C13.7284 14.232 13.1524 14.4 12.5884 14.496C11.4364 14.712 10.3804 14.652 9.48041 14.484C8.79641 14.352 8.20841 14.16 7.71641 13.968C7.44041 13.86 7.14041 13.728 6.84041 13.56C6.80441 13.536 6.76841 13.524 6.73241 13.5C6.70841 13.488 6.69641 13.476 6.68441 13.464C6.46841 13.344 6.34841 13.26 6.34841 13.26C6.34841 13.26 6.92441 14.22 8.44841 14.676C8.08841 15.132 7.64441 15.672 7.64441 15.672C4.99241 15.588 3.98441 13.848 3.98441 13.848C3.98441 9.984 5.71241 6.852 5.71241 6.852C7.44041 5.556 9.08441 5.592 9.08441 5.592L9.20441 5.736C7.04441 6.36 6.04841 7.308 6.04841 7.308C6.04841 7.308 6.31241 7.164 6.75641 6.96C8.04041 6.396 9.06041 6.24 9.48041 6.204C9.55241 6.192 9.61241 6.18 9.68441 6.18C10.4164 6.084 11.2444 6.06 12.1084 6.156C13.2484 6.288 14.4724 6.624 15.7204 7.308C15.7204 7.308 14.7724 6.408 12.7324 5.784L12.9004 5.592C12.9004 5.592 14.5444 5.556 16.2724 6.852C16.2724 6.852 18.0004 9.984 18.0004 13.848C18.0004 13.848 16.9804 15.588 14.3284 15.672Z" fill="white"/>
</svg>
