<svg width="25" height="19" viewBox="0 0 25 19" fill="none" xmlns="http://www.w3.org/2000/svg">
<path fill-rule="evenodd" clip-rule="evenodd" d="M0.240234 1.50903C0.240234 0.956748 0.68795 0.509033 1.24023 0.509033H23.2402C23.7925 0.509033 24.2402 0.956748 24.2402 1.50903C24.2402 2.06132 23.7925 2.50903 23.2402 2.50903H1.24023C0.68795 2.50903 0.240234 2.06132 0.240234 1.50903ZM0.240234 9.50903C0.240234 8.95675 0.68795 8.50903 1.24023 8.50903H23.2402C23.7925 8.50903 24.2402 8.95675 24.2402 9.50903C24.2402 10.0613 23.7925 10.509 23.2402 10.509H1.24023C0.68795 10.509 0.240234 10.0613 0.240234 9.50903ZM1.24023 16.509C0.68795 16.509 0.240234 16.9567 0.240234 17.509C0.240234 18.0613 0.68795 18.509 1.24023 18.509H23.2402C23.7925 18.509 24.2402 18.0613 24.2402 17.509C24.2402 16.9567 23.7925 16.509 23.2402 16.509H1.24023Z" fill="white"/>
</svg>
