<svg width="25" height="19" viewBox="0 0 25 19" fill="none" xmlns="http://www.w3.org/2000/svg">
<path fill-rule="evenodd" clip-rule="evenodd" d="M3.87508 16.5802C3.48455 16.9707 3.48455 17.6039 3.87508 17.9944C4.2656 18.3849 4.89877 18.3849 5.28929 17.9944L12.3603 10.9234L19.4313 17.9944C19.8218 18.385 20.455 18.385 20.8455 17.9944C21.236 17.6039 21.236 16.9707 20.8455 16.5802L13.7745 9.50921L20.8456 2.43805C21.2362 2.04753 21.2362 1.41436 20.8456 1.02384C20.4551 0.633313 19.8219 0.633313 19.4314 1.02384L12.3603 8.095L5.28914 1.02387C4.89861 0.633349 4.26545 0.633349 3.87492 1.02387C3.4844 1.4144 3.4844 2.04756 3.87492 2.43809L10.946 9.50921L3.87508 16.5802Z" fill="#111217"/>
</svg>
