<svg width="25" height="19" viewBox="0 0 25 19" fill="none" xmlns="http://www.w3.org/2000/svg">
<path fill-rule="evenodd" clip-rule="evenodd" d="M0.360352 1.50903C0.360352 0.956748 0.808067 0.509033 1.36035 0.509033H23.3604C23.9126 0.509033 24.3604 0.956748 24.3604 1.50903C24.3604 2.06132 23.9126 2.50903 23.3604 2.50903H1.36035C0.808067 2.50903 0.360352 2.06132 0.360352 1.50903ZM0.360352 9.50903C0.360352 8.95675 0.808067 8.50903 1.36035 8.50903H23.3604C23.9126 8.50903 24.3604 8.95675 24.3604 9.50903C24.3604 10.0613 23.9126 10.509 23.3604 10.509H1.36035C0.808067 10.509 0.360352 10.0613 0.360352 9.50903ZM1.36035 16.509C0.808067 16.509 0.360352 16.9567 0.360352 17.509C0.360352 18.0613 0.808067 18.509 1.36035 18.509H23.3604C23.9126 18.509 24.3604 18.0613 24.3604 17.509C24.3604 16.9567 23.9126 16.509 23.3604 16.509H1.36035Z" fill="#111217"/>
</svg>
