<svg width="25" height="19" viewBox="0 0 25 19" fill="none" xmlns="http://www.w3.org/2000/svg">
<path fill-rule="evenodd" clip-rule="evenodd" d="M3.75496 16.5802C3.36443 16.9707 3.36443 17.6039 3.75496 17.9944C4.14548 18.3849 4.77865 18.3849 5.16917 17.9944L12.2401 10.9234L19.3112 17.9944C19.7017 18.385 20.3348 18.385 20.7254 17.9944C21.1159 17.6039 21.1159 16.9707 20.7254 16.5802L13.6544 9.50921L20.7255 2.43805C21.116 2.04753 21.116 1.41436 20.7255 1.02384C20.335 0.633313 19.7018 0.633313 19.3113 1.02384L12.2401 8.095L5.16902 1.02387C4.7785 0.633349 4.14533 0.633349 3.75481 1.02387C3.36428 1.4144 3.36428 2.04756 3.75481 2.43809L10.8259 9.50921L3.75496 16.5802Z" fill="white"/>
</svg>
